#Comment line ignore any data following # character 
#Hierarchical Translation and Rotation (.htr) file 
[Header]	
#Header keywords are followed by a single value 
FileType HTR		#Single word string
DataType HTRS		#Translation followed by rotation and scale data
FileVersion 1		#integer
NumSegments 84		#integer
NumFrames 2		#integer
DataFrameRate 30		#integer, data frame rate in this file
EulerRotationOrder ZYX
CalibrationUnits mm
RotationUnits Degrees
GlobalAxisofGravity Y
BoneLengthAxis Y
ScaleFactor 1.00
[SegmentNames&Hierarchy]
#CHILD	PARENT
MASTER GLOBAL
root MASTER
chest root
L_mid_tent01 root
R_mid_tent01 root
spine01 root
Bip01_Neck chest
L_humerus chest
R_humerus chest
weapon_bone chest
Bip01_Head Bip01_Neck
eye_left_bone Bip01_Head
eye_right_bone Bip01_Head
L_forearm L_humerus
L_front_hand L_forearm
L_weapon_bone L_forearm
L_front_hand01_01 L_front_hand
L_front_hand02_01 L_front_hand
L_front_hand03_01 L_front_hand
L_front_hand01_02 L_front_hand01_01
L_front_hand02_02 L_front_hand02_01
L_front_hand03_02 L_front_hand03_01
R_forearm R_humerus
R_front_hand R_forearm
R_weapon_bone R_forearm
R_front_hand01_01 R_front_hand
R_front_hand02_01 R_front_hand
R_front_hand03_01 R_front_hand
R_front_hand01_02 R_front_hand01_01
R_front_hand02_02 R_front_hand02_01
R_front_hand03_02 R_front_hand03_01
null_rope01_connect L_mid_tent01
Rope1_Seg01 null_rope01_connect
Rope1_Seg02 Rope1_Seg01
Rope1_Seg03 Rope1_Seg02
Rope1_Seg04 Rope1_Seg03
Rope1_Seg05 Rope1_Seg04
Rope1_Seg06 Rope1_Seg05
Rope1_Seg07 Rope1_Seg06
Rope1_Seg09 Rope1_Seg07
L_mid_hand01 Rope1_Seg09
L_mid_hand02 Rope1_Seg09
L_mid_hand03 Rope1_Seg09
null_rope02_connect R_mid_tent01
Rope2_Seg01 null_rope02_connect
Rope2_Seg02 Rope2_Seg01
Rope2_Seg03 Rope2_Seg02
Rope2_Seg04 Rope2_Seg03
Rope2_Seg05 Rope2_Seg04
Rope2_Seg06 Rope2_Seg05
Rope2_Seg07 Rope2_Seg06
Rope2_Seg09 Rope2_Seg07
R_mid_hand01 Rope2_Seg09
R_mid_hand02 Rope2_Seg09
R_mid_hand03 Rope2_Seg09
spine02 spine01
spine03 spine02
pelvis spine03
null_rope03_connect pelvis
null_rope04_connect pelvis
Rope3_Seg01 null_rope03_connect
Rope3_Seg02 Rope3_Seg01
Rope3_Seg03 Rope3_Seg02
Rope3_Seg04 Rope3_Seg03
Rope3_Seg05 Rope3_Seg04
Rope3_Seg06 Rope3_Seg05
Rope3_Seg07 Rope3_Seg06
Rope3_Seg08 Rope3_Seg07
Rope3_Seg09 Rope3_Seg08
R_rear_hand01 Rope3_Seg09
R_rear_hand02 Rope3_Seg09
R_rear_hand03 Rope3_Seg09
Rope4_Seg01 null_rope04_connect
Rope4_Seg02 Rope4_Seg01
Rope4_Seg03 Rope4_Seg02
Rope4_Seg04 Rope4_Seg03
Rope4_Seg05 Rope4_Seg04
Rope4_Seg06 Rope4_Seg05
Rope4_Seg07 Rope4_Seg06
Rope4_Seg08 Rope4_Seg07
Rope4_Seg09 Rope4_Seg08
L_rear_hand01 Rope4_Seg09
L_rear_hand02 Rope4_Seg09
L_rear_hand03 Rope4_Seg09
[BasePosition]
#SegmentName Tx, Ty, Tz, Rx, Ry, Rz, BoneLength
MASTER 0.000000 0.000000 0.000000 -90.000000 0.000000 0.000000 10.000000 
root 0.000000 0.000000 0.000000 0.000000 0.000000 0.000000 10.000000 
chest 0.000000 0.000000 0.000000 0.000000 0.000000 0.000000 10.000000 
L_mid_tent01 0.000000 0.000000 0.000000 0.000000 0.000000 0.000000 10.000000 
R_mid_tent01 0.000000 0.000000 0.000000 0.000000 0.000000 0.000000 10.000000 
spine01 0.000000 0.000000 0.000000 0.000000 0.000000 0.000000 10.000000 
Bip01_Neck 0.000000 0.000000 0.000000 0.000000 0.000000 0.000000 10.000000 
L_humerus 0.000000 0.000000 0.000000 0.000000 0.000000 0.000000 10.000000 
R_humerus 0.000000 0.000000 0.000000 0.000000 0.000000 0.000000 10.000000 
weapon_bone 0.000000 0.000000 0.000000 0.000000 0.000000 0.000000 10.000000 
Bip01_Head 0.000000 0.000000 0.000000 0.000000 0.000000 0.000000 10.000000 
eye_left_bone 0.000000 0.000000 0.000000 0.000000 0.000000 0.000000 10.000000 
eye_right_bone 0.000000 0.000000 0.000000 0.000000 0.000000 0.000000 10.000000 
L_forearm 0.000000 0.000000 0.000000 0.000000 0.000000 0.000000 10.000000 
L_front_hand 0.000000 0.000000 0.000000 0.000000 0.000000 0.000000 10.000000 
L_weapon_bone 0.000000 0.000000 0.000000 0.000000 0.000000 0.000000 10.000000 
L_front_hand01_01 0.000000 0.000000 0.000000 0.000000 0.000000 0.000000 10.000000 
L_front_hand02_01 0.000000 0.000000 0.000000 0.000000 0.000000 0.000000 10.000000 
L_front_hand03_01 0.000000 0.000000 0.000000 0.000000 0.000000 0.000000 10.000000 
L_front_hand01_02 0.000000 0.000000 0.000000 0.000000 0.000000 0.000000 10.000000 
L_front_hand02_02 0.000000 0.000000 0.000000 0.000000 0.000000 0.000000 10.000000 
L_front_hand03_02 0.000000 0.000000 0.000000 0.000000 0.000000 0.000000 10.000000 
R_forearm 0.000000 0.000000 0.000000 0.000000 0.000000 0.000000 10.000000 
R_front_hand 0.000000 0.000000 0.000000 0.000000 0.000000 0.000000 10.000000 
R_weapon_bone 0.000000 0.000000 0.000000 0.000000 0.000000 0.000000 10.000000 
R_front_hand01_01 0.000000 0.000000 0.000000 0.000000 0.000000 0.000000 10.000000 
R_front_hand02_01 0.000000 0.000000 0.000000 0.000000 0.000000 0.000000 10.000000 
R_front_hand03_01 0.000000 0.000000 0.000000 0.000000 0.000000 0.000000 10.000000 
R_front_hand01_02 0.000000 0.000000 0.000000 0.000000 0.000000 0.000000 10.000000 
R_front_hand02_02 0.000000 0.000000 0.000000 0.000000 0.000000 0.000000 10.000000 
R_front_hand03_02 0.000000 0.000000 0.000000 0.000000 0.000000 0.000000 10.000000 
null_rope01_connect 0.000000 0.000000 0.000000 0.000000 0.000000 0.000000 10.000000 
Rope1_Seg01 0.000000 0.000000 0.000000 0.000000 0.000000 0.000000 10.000000 
Rope1_Seg02 0.000000 0.000000 0.000000 0.000000 0.000000 0.000000 10.000000 
Rope1_Seg03 0.000000 0.000000 0.000000 0.000000 0.000000 0.000000 10.000000 
Rope1_Seg04 0.000000 0.000000 0.000000 0.000000 0.000000 0.000000 10.000000 
Rope1_Seg05 0.000000 0.000000 0.000000 0.000000 0.000000 0.000000 10.000000 
Rope1_Seg06 0.000000 0.000000 0.000000 0.000000 0.000000 0.000000 10.000000 
Rope1_Seg07 0.000000 0.000000 0.000000 0.000000 0.000000 0.000000 10.000000 
Rope1_Seg09 0.000000 0.000000 0.000000 0.000000 0.000000 0.000000 10.000000 
L_mid_hand01 0.000000 0.000000 0.000000 0.000000 0.000000 0.000000 10.000000 
L_mid_hand02 0.000000 0.000000 0.000000 0.000000 0.000000 0.000000 10.000000 
L_mid_hand03 0.000000 0.000000 0.000000 0.000000 0.000000 0.000000 10.000000 
null_rope02_connect 0.000000 0.000000 0.000000 0.000000 0.000000 0.000000 10.000000 
Rope2_Seg01 0.000000 0.000000 0.000000 0.000000 0.000000 0.000000 10.000000 
Rope2_Seg02 0.000000 0.000000 0.000000 0.000000 0.000000 0.000000 10.000000 
Rope2_Seg03 0.000000 0.000000 0.000000 0.000000 0.000000 0.000000 10.000000 
Rope2_Seg04 0.000000 0.000000 0.000000 0.000000 0.000000 0.000000 10.000000 
Rope2_Seg05 0.000000 0.000000 0.000000 0.000000 0.000000 0.000000 10.000000 
Rope2_Seg06 0.000000 0.000000 0.000000 0.000000 0.000000 0.000000 10.000000 
Rope2_Seg07 0.000000 0.000000 0.000000 0.000000 0.000000 0.000000 10.000000 
Rope2_Seg09 0.000000 0.000000 0.000000 0.000000 0.000000 0.000000 10.000000 
R_mid_hand01 0.000000 0.000000 0.000000 0.000000 0.000000 0.000000 10.000000 
R_mid_hand02 0.000000 0.000000 0.000000 0.000000 0.000000 0.000000 10.000000 
R_mid_hand03 0.000000 0.000000 0.000000 0.000000 0.000000 0.000000 10.000000 
spine02 0.000000 0.000000 0.000000 0.000000 0.000000 0.000000 10.000000 
spine03 0.000000 0.000000 0.000000 0.000000 0.000000 0.000000 10.000000 
pelvis 0.000000 0.000000 0.000000 0.000000 0.000000 0.000000 10.000000 
null_rope03_connect 0.000000 0.000000 0.000000 0.000000 0.000000 0.000000 10.000000 
null_rope04_connect 0.000000 0.000000 0.000000 0.000000 0.000000 0.000000 10.000000 
Rope3_Seg01 0.000000 0.000000 0.000000 0.000000 0.000000 0.000000 10.000000 
Rope3_Seg02 0.000000 0.000000 0.000000 0.000000 0.000000 0.000000 10.000000 
Rope3_Seg03 0.000000 0.000000 0.000000 0.000000 0.000000 0.000000 10.000000 
Rope3_Seg04 0.000000 0.000000 0.000000 0.000000 0.000000 0.000000 10.000000 
Rope3_Seg05 0.000000 0.000000 0.000000 0.000000 0.000000 0.000000 10.000000 
Rope3_Seg06 0.000000 0.000000 0.000000 0.000000 0.000000 0.000000 10.000000 
Rope3_Seg07 0.000000 0.000000 0.000000 0.000000 0.000000 0.000000 10.000000 
Rope3_Seg08 0.000000 0.000000 0.000000 0.000000 0.000000 0.000000 10.000000 
Rope3_Seg09 0.000000 0.000000 0.000000 0.000000 0.000000 0.000000 10.000000 
R_rear_hand01 0.000000 0.000000 0.000000 0.000000 0.000000 0.000000 10.000000 
R_rear_hand02 0.000000 0.000000 0.000000 0.000000 0.000000 0.000000 10.000000 
R_rear_hand03 0.000000 0.000000 0.000000 0.000000 0.000000 0.000000 10.000000 
Rope4_Seg01 0.000000 0.000000 0.000000 0.000000 0.000000 0.000000 10.000000 
Rope4_Seg02 0.000000 0.000000 0.000000 0.000000 0.000000 0.000000 10.000000 
Rope4_Seg03 0.000000 0.000000 0.000000 0.000000 0.000000 0.000000 10.000000 
Rope4_Seg04 0.000000 0.000000 0.000000 0.000000 0.000000 0.000000 10.000000 
Rope4_Seg05 0.000000 0.000000 0.000000 0.000000 0.000000 0.000000 10.000000 
Rope4_Seg06 0.000000 0.000000 0.000000 0.000000 0.000000 0.000000 10.000000 
Rope4_Seg07 0.000000 0.000000 0.000000 0.000000 0.000000 0.000000 10.000000 
Rope4_Seg08 0.000000 0.000000 0.000000 0.000000 0.000000 0.000000 10.000000 
Rope4_Seg09 0.000000 0.000000 0.000000 0.000000 0.000000 0.000000 10.000000 
L_rear_hand01 0.000000 0.000000 0.000000 0.000000 0.000000 0.000000 10.000000 
L_rear_hand02 0.000000 0.000000 0.000000 0.000000 0.000000 0.000000 10.000000 
L_rear_hand03 0.000000 0.000000 0.000000 0.000000 0.000000 0.000000 10.000000 
#Beginning of Data. Separated by tabs
#Fr	Tx	Ty	Tz	Rx	Ry	Rz	SF
[MASTER]
16 0.000000 0.000000 0.000000 0.001660 0.001660 0.001660 0.000000
17 0.000000 0.000000 0.000000 0.001660 0.001660 0.001660 0.000000
[root]
16 -31.508059 -63.193737 1463.723877 -91.629700 -27.676081 -90.148109 1465.426270
17 -33.502480 -60.003952 1471.451416 -91.629700 -27.676081 -90.148109 1473.055298
[chest]
16 -84.512650 -34.090519 0.000000 -1.888050 0.943089 -178.206696 91.129311
17 -84.512650 -34.090519 0.000000 -1.888050 0.943089 -178.206696 91.129311
[L_mid_tent01]
16 27.299568 22.177618 -249.918304 2.883859 29.896572 80.354515 252.381210
17 27.299572 22.177620 -249.918304 3.064290 31.166100 80.537880 252.381210
[R_mid_tent01]
16 23.228794 24.509907 226.238495 161.446350 -41.501972 84.989738 228.744751
17 23.228794 24.509907 226.238495 161.336548 -42.536507 85.433670 228.744751
[spine01]
16 -0.361383 -0.195265 0.000000 0.001845 0.001451 13.654368 0.410763
17 -0.361383 -0.195265 0.000000 0.001845 0.001451 13.654368 0.410763
[Bip01_Neck]
16 165.484543 71.581718 0.000119 176.643677 -1.657967 43.431911 180.302734
17 165.484543 71.581718 0.000119 176.643677 -1.657967 43.431911 180.302734
[L_humerus]
16 -13.983130 -135.272980 -120.471481 156.317398 70.210068 -112.010254 181.680161
17 -13.983130 -135.272980 -120.471481 156.317398 70.210068 -112.010254 181.680161
[R_humerus]
16 -13.983309 -135.273102 125.287651 -172.382263 -66.903831 -92.553993 184.909012
17 -13.983309 -135.273102 125.287651 -172.382263 -66.903831 -92.553993 184.909012
[weapon_bone]
16 235.964890 -300.705902 0.000000 0.000000 -89.951546 -128.212341 382.234833
17 235.964890 -300.705902 0.000000 0.000000 -89.951546 -128.212341 382.234833
[Bip01_Head]
16 213.668137 185.092758 19.817436 4.439511 -0.609496 -43.899078 283.383362
17 213.651886 185.138016 19.232922 4.439538 -0.278524 -43.901749 283.360413
[eye_left_bone]
16 -24.626970 125.451866 -64.772606 0.000000 -90.000000 -99.840431 143.318359
17 -24.626970 125.451866 -64.772606 0.000000 -90.000000 -99.840431 143.318359
[eye_right_bone]
16 -24.626970 125.451866 64.327362 0.000000 -89.965736 80.156380 143.117676
17 -24.626970 125.451866 64.327362 0.000000 -89.965736 80.156380 143.117676
[L_forearm]
16 322.776093 0.000000 -0.000119 0.000119 -0.002344 -95.807457 322.776093
17 322.776093 0.000000 -0.000119 0.000119 -0.002344 -95.807457 322.776093
[L_front_hand]
16 241.149185 -0.042021 -3.300071 -178.667953 -1.835447 -27.422350 241.171753
17 241.149185 -0.042021 -3.300071 -178.667953 -1.835447 -27.422350 241.171753
[L_weapon_bone]
16 156.183838 0.000000 0.000000 0.000014 0.000007 0.000001 156.183838
17 156.183838 0.000000 0.000000 0.000014 0.000007 0.000001 156.183838
[L_front_hand01_01]
16 86.095154 20.947098 -0.655860 -0.280373 -0.529283 65.613800 88.609184
17 86.095154 20.947098 -0.655860 -0.282467 -0.528169 66.067474 88.609184
[L_front_hand02_01]
16 86.935165 -11.437475 24.513514 141.458649 -54.658344 -46.027485 91.046425
17 86.935165 -11.437475 24.513514 141.960785 -54.937954 -46.642345 91.046425
[L_front_hand03_01]
16 86.637497 -14.123976 -20.424902 -141.832764 52.885189 -48.080185 90.126129
17 86.637497 -14.123976 -20.424902 -142.303543 53.163303 -48.671032 90.126129
[L_front_hand01_02]
16 71.020905 -0.000179 0.000030 0.000315 -0.002326 -105.400543 71.020905
17 71.020905 -0.000179 0.000030 0.000315 -0.002326 -105.421257 71.020905
[L_front_hand02_02]
16 71.020927 -0.000119 0.000060 0.000315 -0.002326 -105.400543 71.020927
17 71.020927 -0.000119 0.000060 0.000315 -0.002326 -105.421257 71.020927
[L_front_hand03_02]
16 71.020905 -0.000060 0.000060 0.000315 -0.002326 -105.400543 71.020905
17 71.020905 -0.000060 0.000060 0.000315 -0.002326 -105.421257 71.020905
[R_forearm]
16 322.776428 -0.000060 0.000030 0.209504 0.012586 -94.339050 322.776428
17 322.776428 -0.000060 0.000030 0.209504 0.012586 -94.339050 322.776428
[R_front_hand]
16 238.847015 -0.006795 2.210259 -2.635298 -10.645461 -26.312506 238.857239
17 238.847015 -0.006795 2.210259 -2.635298 -10.645461 -26.312506 238.857239
[R_weapon_bone]
16 155.664093 0.002503 -0.000030 0.003487 0.001180 -90.988930 155.664078
17 155.664093 0.002503 -0.000030 0.003487 0.001180 -90.988930 155.664078
[R_front_hand01_01]
16 87.624611 14.231146 22.918642 -138.672287 -52.939835 42.677601 91.683487
17 87.624611 14.231146 22.918642 -139.271561 -53.333107 43.426708 91.683487
[R_front_hand02_01]
16 89.356956 14.367283 -19.491137 139.502045 51.377892 45.363930 92.579636
17 89.356956 14.367283 -19.491137 140.080994 51.767307 46.104946 92.579636
[R_front_hand03_01]
16 87.286232 -22.307278 -0.143439 0.064897 -0.451663 -63.182877 90.091743
17 87.286232 -22.307278 -0.143439 0.071479 -0.448702 -63.787704 90.091743
[R_front_hand01_02]
16 71.020905 0.000060 0.000119 0.002323 -0.000334 106.381714 71.020905
17 71.020905 0.000060 0.000119 0.002323 -0.000334 106.381714 71.020905
[R_front_hand02_02]
16 71.020844 -0.000030 -0.000119 0.002323 -0.000334 106.381714 71.020836
17 71.020844 -0.000030 -0.000119 0.002323 -0.000334 106.381714 71.020836
[R_front_hand03_02]
16 71.020905 0.000000 0.000030 0.002323 -0.000334 106.381714 71.020905
17 71.020905 0.000000 0.000030 0.002323 -0.000334 106.381714 71.020905
[null_rope01_connect]
16 328.732483 0.000000 -0.000238 -137.435318 -58.307735 175.611526 328.732483
17 328.732483 0.000000 -0.000238 -137.457184 -57.029324 175.538162 328.732483
[Rope1_Seg01]
16 -0.000038 -0.000114 0.000105 119.005638 43.459805 148.360092 0.000160
17 -0.000038 -0.000114 0.000106 117.847839 45.664337 145.672043 0.000160
[Rope1_Seg02]
16 139.999863 -0.000179 0.000000 0.060482 -6.344953 4.749864 139.999863
17 139.999863 -0.000179 0.000000 -0.076653 -5.873844 5.098126 139.999863
[Rope1_Seg03]
16 139.999924 0.000060 -0.000060 -0.762933 -10.963564 8.419441 139.999924
17 139.999924 0.000060 -0.000060 -0.755470 -9.888394 8.792703 139.999924
[Rope1_Seg04]
16 139.999924 -0.000060 -0.000119 -4.753994 -20.289877 17.718666 139.999924
17 139.999924 -0.000060 -0.000119 -3.023325 -16.639229 17.845682 139.999924
[Rope1_Seg05]
16 139.999832 0.000119 -0.000060 -10.708932 -20.258421 12.566055 139.999832
17 139.999832 0.000119 -0.000060 -10.643183 -20.844246 13.203189 139.999832
[Rope1_Seg06]
16 139.999954 0.000119 -0.000060 -6.649046 -6.320801 0.979477 139.999954
17 139.999954 0.000119 -0.000060 -8.771635 -8.150524 1.229538 139.999954
[Rope1_Seg07]
16 139.999985 0.000060 0.000000 -4.691689 -4.092972 0.843018 139.999985
17 139.999985 0.000060 0.000000 -5.384885 -4.414929 0.759370 139.999985
[Rope1_Seg09]
16 121.602913 0.000119 -0.000089 -89.793175 -1.359789 0.847147 121.602913
17 121.602913 0.000119 -0.000089 -89.793175 -1.359789 0.847147 121.602913
[L_mid_hand01]
16 103.859421 1.038730 8.195221 122.214622 -62.281231 -29.682964 104.187431
17 103.859421 1.038730 8.195221 126.075401 -65.098549 -33.991913 104.187431
[L_mid_hand02]
16 105.572853 -4.139662 -10.864139 -163.055801 41.815437 -64.846191 106.211075
17 105.572853 -4.139662 -10.864139 -166.035263 42.723965 -69.273842 106.211075
[L_mid_hand03]
16 104.641464 17.579376 -3.913581 -8.059158 17.002197 68.062881 106.179977
17 104.641464 17.579376 -3.913581 -7.014418 17.452778 71.596474 106.179977
[null_rope02_connect]
16 328.732849 0.000179 -0.000119 -119.634140 46.739262 20.916117 328.732849
17 328.732849 0.000179 -0.000119 -120.433609 45.793678 20.321142 328.732849
[Rope2_Seg01]
16 -0.000057 0.000134 0.000153 -55.437771 37.394257 38.835270 0.000211
17 -0.000056 0.000134 0.000153 -55.080097 39.073418 40.363041 0.000210
[Rope2_Seg02]
16 139.999741 -0.000060 -0.000119 -0.482842 -3.716095 3.184660 139.999756
17 139.999741 -0.000060 -0.000119 -0.420306 -3.891339 3.094320 139.999756
[Rope2_Seg03]
16 140.000107 0.000030 0.000000 -0.671816 -6.426348 5.455637 140.000107
17 140.000107 0.000030 0.000000 -0.600716 -6.673099 5.309764 140.000107
[Rope2_Seg04]
16 139.999802 0.000000 -0.000060 -0.766378 -8.268216 14.080536 139.999802
17 139.999802 0.000000 -0.000060 -0.644937 -9.236940 13.876325 139.999802
[Rope2_Seg05]
16 139.999985 -0.000060 0.000119 -6.674970 -35.503155 15.328034 139.999985
17 139.999985 -0.000060 0.000119 -7.294588 -35.490246 12.909175 139.999985
[Rope2_Seg06]
16 139.999893 -0.000030 -0.000119 -5.586550 -10.814445 0.600508 139.999893
17 139.999893 -0.000030 -0.000119 -5.230862 -9.770194 0.394391 139.999893
[Rope2_Seg07]
16 139.999893 0.000060 -0.000060 -2.007585 -4.020721 0.562138 139.999893
17 139.999893 0.000060 -0.000060 -2.114830 -3.850104 0.394457 139.999893
[Rope2_Seg09]
16 121.338966 0.000089 -0.000060 33.793236 -1.359788 -0.847141 121.338966
17 121.338966 0.000089 -0.000060 33.793236 -1.359788 -0.847141 121.338966
[R_mid_hand01]
16 104.680779 11.144459 -10.335981 -32.057350 37.073116 46.635818 105.778534
17 104.680779 11.144459 -10.335981 -28.450209 39.729855 52.441807 105.778534
[R_mid_hand02]
16 104.070427 2.443552 8.231699 66.850014 -50.884758 18.890066 104.424065
17 104.070427 2.443552 8.231699 63.903580 -55.672924 22.558943 104.424065
[R_mid_hand03]
16 106.028137 -11.221827 -5.996406 -171.959641 13.662919 -56.404911 106.788818
17 106.028137 -11.221827 -5.996406 -173.263687 14.341302 -61.789295 106.788818
[spine02]
16 129.756927 0.001550 0.000119 -1.023899 -3.926965 6.770993 129.756927
17 129.756927 0.001550 0.000119 -1.023899 -3.926965 6.770993 129.756927
[spine03]
16 78.613846 0.087372 -4.898873 1.040681 4.146420 4.212376 78.766380
17 78.613846 0.087372 -4.898873 1.040680 4.146419 4.212375 78.766380
[pelvis]
16 169.435242 0.051022 0.000000 0.019518 -0.190233 -10.721436 169.435257
17 169.435242 0.051022 0.000000 0.019518 -0.190233 -10.721436 169.435257
[null_rope03_connect]
16 -1.257226 -2.466202 137.391083 -148.996323 -87.995132 -107.160522 137.418976
17 -1.257226 -2.466202 137.391083 -148.996323 -87.995132 -107.160522 137.418976
[null_rope04_connect]
16 -1.259640 -2.480268 -137.844437 -148.996323 -87.995132 -107.160522 137.872513
17 -1.259640 -2.480268 -137.844437 -148.996323 -87.995132 -107.160522 137.872513
[Rope3_Seg01]
16 0.000000 0.000000 0.000000 -143.189407 -45.855465 -66.458099 0.000000
17 0.000000 0.000000 0.000000 -142.055130 -46.251072 -68.264053 0.000000
[Rope3_Seg02]
16 139.999924 -0.000119 0.000060 -14.992824 5.469775 -30.135117 139.999924
17 139.999924 -0.000119 0.000060 -14.646306 4.908383 -31.112534 139.999924
[Rope3_Seg03]
16 139.999924 -0.000119 0.000119 -52.420685 17.583811 -42.661385 139.999924
17 139.999924 -0.000119 0.000119 -52.321228 15.767309 -42.723091 139.999924
[Rope3_Seg04]
16 139.999924 0.000119 0.000000 -26.739422 27.443998 -11.464378 139.999924
17 139.999924 0.000119 0.000000 -27.508902 26.760712 -11.178466 139.999924
[Rope3_Seg05]
16 139.999924 -0.000238 0.000060 -10.700179 32.552341 1.044649 139.999924
17 139.999924 -0.000238 0.000060 -10.585771 32.844448 2.600825 139.999924
[Rope3_Seg06]
16 139.999893 -0.000119 -0.000060 -0.520836 12.846223 2.986882 139.999893
17 139.999893 -0.000119 -0.000060 -0.447430 13.132778 3.669672 139.999893
[Rope3_Seg07]
16 139.999771 0.000060 -0.000119 0.511293 5.831697 1.449013 139.999771
17 139.999771 0.000060 -0.000119 0.546252 5.906899 1.723604 139.999771
[Rope3_Seg08]
16 139.999985 -0.000060 0.000000 0.641402 3.110803 0.747372 139.999985
17 139.999985 -0.000060 0.000000 0.662188 3.143550 0.883700 139.999985
[Rope3_Seg09]
16 90.185997 -0.000179 -0.000060 89.793228 -1.359877 -0.847183 90.185997
17 90.185997 -0.000179 -0.000060 89.793228 -1.359877 -0.847183 90.185997
[R_rear_hand01]
16 103.366196 -6.073594 -10.757982 -169.706436 22.536156 -54.046982 104.101845
17 103.366196 -6.073594 -10.757982 -171.885513 23.373785 -59.632885 104.101845
[R_rear_hand02]
16 100.509819 12.039542 -7.992327 -24.637733 30.906170 51.254921 101.543350
17 100.509819 12.039542 -7.992327 -21.647255 32.954239 56.905464 101.543350
[R_rear_hand03]
16 101.539970 5.215704 5.435467 80.293877 -53.997543 11.741186 101.819031
17 101.539970 5.215704 5.435467 78.870155 -59.127991 13.449200 101.819031
[Rope4_Seg01]
16 -0.000014 -0.000038 -0.000153 50.867031 -28.429585 -102.320152 0.000158
17 -0.000014 -0.000036 -0.000153 50.966816 -29.382986 -102.261963 0.000157
[Rope4_Seg02]
16 139.999985 0.000060 0.000119 16.312590 -54.536186 14.245645 139.999985
17 139.999985 0.000060 0.000119 16.573837 -54.093365 13.010804 139.999985
[Rope4_Seg03]
16 139.999924 0.000000 -0.000238 40.424747 -28.477095 20.329126 139.999924
17 139.999924 0.000000 -0.000238 41.077774 -28.704964 19.267439 139.999924
[Rope4_Seg04]
16 139.999985 0.000000 0.000119 20.525476 -2.950475 18.509361 139.999985
17 139.999985 0.000000 0.000119 21.279482 -2.988563 18.500509 139.999985
[Rope4_Seg05]
16 139.999802 -0.000060 -0.000119 20.031815 7.702464 36.801575 139.999802
17 139.999802 -0.000060 -0.000119 20.483120 8.384047 37.002422 139.999802
[Rope4_Seg06]
16 139.999924 0.000000 0.000060 4.285759 11.369364 20.257484 139.999924
17 139.999924 0.000000 0.000060 4.335074 11.907478 20.227200 139.999924
[Rope4_Seg07]
16 139.999802 0.000000 0.000000 0.099297 4.565721 7.291419 139.999802
17 139.999802 0.000000 0.000000 0.095614 4.714609 7.212418 139.999802
[Rope4_Seg08]
16 139.999924 0.000000 0.000119 -1.771767 2.277876 3.655249 139.999924
17 139.999924 0.000000 0.000119 -1.775330 2.349065 3.612050 139.999924
[Rope4_Seg09]
16 90.185791 0.000060 0.000060 -135.617828 2.228885 0.850567 90.185791
17 90.185791 0.000060 0.000060 -135.617828 2.228885 0.850567 90.185791
[L_rear_hand01]
16 101.696655 -8.392275 -7.654577 -16.606979 -35.526840 114.151619 102.329041
17 101.696655 -8.392275 -7.654577 -14.676040 -36.272415 110.857796 102.329041
[L_rear_hand02]
16 102.726799 -1.568258 5.773216 75.446785 66.761177 162.720428 102.900848
17 102.726799 -1.568258 5.773216 73.610291 69.437737 160.740738 102.900848
[L_rear_hand03]
16 104.552910 9.721220 -10.420293 -175.325211 -24.244322 -111.864204 105.519653
17 104.552910 9.721220 -10.420293 -176.571304 -24.441328 -108.830574 105.519653
